<svg viewBox="0 0 218 46" style="background-color:#ffffff00" xmlns="http://www.w3.org/2000/svg" width="161" height="34"><g fill="#fff"><path d="M12.505 23.713c-1.682 0-3.305-.322-4.837-.967-1.442-.615-2.764-1.465-3.906-2.578-1.142-1.084-2.013-2.373-2.644-3.809-.661-1.465-.961-3.018-.961-4.6 0-1.611.331-3.164.961-4.629.631-1.406 1.532-2.695 2.674-3.779 1.142-1.113 2.494-1.963 3.966-2.578 1.532-.615 3.155-.936 4.807-.936 2.704 0 5.228.818 7.331 2.4.661.498.781 1.406.301 2.051-.511.644-1.472.762-2.103.293-1.592-1.201-3.485-1.817-5.528-1.817-1.262 0-2.494.234-3.665.703-1.112.469-2.133 1.113-3.005 1.963-.841.82-1.532 1.787-2.013 2.871-.481 1.084-.721 2.256-.721 3.457s.24 2.344.721 3.457c.481 1.084 1.142 2.051 2.013 2.871 1.773 1.729 4.116 2.695 6.61 2.695 1.112 0 2.163-.205 3.185-.557.991-.352 1.893-.879 2.704-1.524.631-.527 1.562-.439 2.103.176.539.615.449 1.553-.18 2.051-1.082.879-2.283 1.553-3.575 2.021-1.352.498-2.794.762-4.236.762zM40.437.063c-.776 0-1.437.657-1.437 1.49v8.447h-13v-8.51c0-.833-.545-1.428-1.35-1.428s-1.65.657-1.65 1.49v20.384c0 .81.845 1.5 1.65 1.5.805 0 1.35-.69 1.35-1.5v-8.937h13v9c0 .81.874 1.438 1.65 1.438.805 0 1.35-.69 1.35-1.5v-20.384c0-.833-.633-1.49-1.438-1.49h-.125zM46.255 24.054c-.298 0-.626-.09-.894-.301-.566-.422-.776-1.206-.447-1.869l9.918-20.673c.268-.512.774-.844 1.34-.844.566 0 1.102.332 1.34.844l9.978 20.643c.356.723.06 1.627-.685 1.989-.745.391-1.638.06-1.996-.663l-2.323-4.852c-1.549-.452-3.187-.512-4.944-.181-1.638.301-3.336.904-5.093 1.838-3.038 1.627-5.153 3.616-5.183 3.646-.268.271-.655.422-1.013.422zm9.918-18.745l-5.987 12.506c.268-.151.536-.301.834-.452 1.996-1.085 4.021-1.808 5.957-2.17 1.34-.241 2.621-.332 3.872-.211l-4.676-9.674zM71.5 24.054c-.84 0-1.5-.693-1.5-1.507v-21.04c0-.844.66-1.507 1.5-1.507h8.067c.12 0 .84 0 1.77.242 1.32.332 2.49 1.361 3.36 2.235.69.663 1.2 1.477 1.56 2.411.42 1.025.6 2.2.6 3.496 0 2.833-1.2 5.033-3.45 6.329-.54.301-1.14.573-1.8.753 1.29 1.115 2.46 2.531 3.39 4.189.78 1.326 1.62 1.326 1.74 1.326.81-.09 1.56.452 1.68 1.266.12.814-.45 1.597-1.26 1.718-.21.03-.9.09-1.83-.211-.81-.301-1.98-.964-2.91-2.592-1.05-1.808-2.34-3.225-3.84-4.189-1.05-.693-1.83-.904-1.89-.904-.78-.151-1.278-.844-1.2-1.627.06-.784.72-1.356 1.5-1.356 2.13 0 3.78-.332 4.95-.995 1.32-.753 1.92-1.929 1.92-3.707 0-1.205-.21-2.2-.66-2.983-.33-.573-.78-1.406-1.38-1.767-1.05-.603-2.16-.633-2.25-.633h-6.567v19.167c0 .814-.66 1.888-1.5 1.888zM91.955 24.054c-.298 0-.626-.09-.894-.301-.566-.422-.776-1.206-.447-1.869l9.918-20.673c.268-.512.774-.844 1.34-.844.566 0 1.102.332 1.34.844l9.978 20.643c.356.723.06 1.627-.685 1.989-.745.391-1.638.06-1.996-.663l-2.323-4.852c-1.549-.452-3.187-.512-4.944-.181-1.638.301-3.336.904-5.093 1.838-3.038 1.627-5.153 3.616-5.183 3.646-.268.271-.655.422-1.013.422zm9.919-18.745l-5.987 12.506c.268-.151.536-.301.834-.452 1.996-1.085 4.021-1.808 5.957-2.17 1.34-.241 2.621-.332 3.872-.211l-4.676-9.674zM126.754 23.713c-1.682 0-3.305-.322-4.837-.967-1.442-.615-2.764-1.465-3.906-2.578-1.142-1.084-2.013-2.373-2.644-3.809-.661-1.465-.961-3.018-.961-4.6 0-1.611.33-3.164.961-4.629.631-1.406 1.532-2.695 2.674-3.779 1.142-1.113 2.494-1.963 3.966-2.578 1.532-.615 3.155-.936 4.807-.936 2.704 0 5.228.818 7.331 2.4.661.498.781 1.406.3 2.051-.511.644-1.472.762-2.103.293-1.592-1.201-3.485-1.817-5.528-1.817-1.262 0-2.494.234-3.665.703-1.112.469-2.133 1.113-3.004 1.963-.841.82-1.532 1.787-2.013 2.871-.481 1.084-.721 2.256-.721 3.457s.24 2.344.721 3.457c.481 1.084 1.142 2.051 2.013 2.871 1.773 1.729 4.116 2.695 6.61 2.695 1.112 0 2.163-.205 3.185-.557.991-.352 1.893-.879 2.704-1.524.631-.527 1.562-.439 2.103.176.539.615.449 1.553-.18 2.051-1.082.879-2.283 1.553-3.575 2.021-1.352.498-2.794.762-4.236.762zM154.607 0h-16.044c-.84 0-1.5.758-1.5 1.563 0 .805.66 1.437 1.5 1.437h6.437v19.47c0 .857.595 1.468 1.4 1.468.776 0 1.6-.673 1.6-1.53v-19.407h6.57c.84 0 1.537-.632 1.537-1.437s-.66-1.563-1.5-1.563zM174.839 21h-12.839v-7h11.1c.84 0 1.387-.695 1.387-1.5 0-.776-.66-1.5-1.5-1.5h-10.987v-8h12.54c.84 0 1.387-.695 1.387-1.5s-.66-1.5-1.5-1.5h-13.99c-.776 0-1.437.633-1.437 1.438v21.125c0 .805.661 1.437 1.437 1.437h14.29c.84 0 1.5-.632 1.5-1.437s-.66-1.563-1.5-1.563h.112zM181.5 24.054c-.84 0-1.5-.693-1.5-1.507v-21.04c0-.844.66-1.507 1.5-1.507h8.317c.12 0 .84 0 1.77.242 1.32.332 2.49 1.361 3.36 2.235.69.663 1.2 1.477 1.56 2.411.42 1.025.6 2.2.6 3.496 0 2.833-1.2 5.033-3.45 6.329-.54.301-1.14.573-1.8.753 1.29 1.115 2.46 2.531 3.39 4.189.78 1.326 1.62 1.326 1.74 1.326.81-.09 1.56.452 1.68 1.266.12.814-.45 1.597-1.26 1.718-.21.03-.9.09-1.83-.211-.81-.301-1.98-.964-2.91-2.592-1.05-1.808-2.34-3.225-3.84-4.189-1.05-.693-1.83-.904-1.89-.904-.78-.151-1.278-.844-1.2-1.627.06-.784.72-1.356 1.5-1.356 2.13 0 3.78-.332 4.95-.995 1.32-.753 1.92-1.929 1.92-3.707 0-1.205-.21-2.2-.66-2.983-.33-.573-.78-1.406-1.38-1.767-1.05-.603-2.16-.633-2.25-.633h-6.817v19.167c0 .814-.66 1.888-1.5 1.888zM209.446 23.803c-6.51 0-8.34-3.01-8.55-3.364-.39-.708-.12-1.623.6-2.007.72-.384 1.62-.118 2.01.561.06.059.36.472 1.14.885 1.5.797 3.45.974 4.8.974 1.98 0 3.48-.413 4.32-1.18.66-.59.81-1.328.81-1.83 0-1.092-.33-1.918-1.05-2.597-.93-.915-2.55-1.594-4.83-2.036-1.65-.354-3.09-.915-4.23-1.682-.96-.649-1.71-1.446-2.25-2.39-.87-1.476-.87-2.804-.87-3.158 0-1.564.75-3.128 2.04-4.249.63-.561 1.41-1.003 2.28-1.328.9-.325 1.89-.473 2.91-.473 5.85 0 7.56 2.716 7.74 3.041.39.708.15 1.623-.57 2.007-.72.384-1.62.148-2.01-.531-.06-.059-.33-.384-.99-.767-.72-.354-2.01-.797-4.17-.797-1.65 0-2.64.561-3.21 1.062-.63.561-1.02 1.328-1.02 2.095v.059c0 .118 0 .856.54 1.712.33.531.78.974 1.38 1.358.78.502 1.8.885 3.03 1.151 2.88.561 4.95 1.475 6.33 2.803 1.29 1.239 1.95 2.833 1.95 4.722 0 1.535-.63 2.951-1.77 4.013-1.41 1.299-3.57 1.948-6.36 1.948zM185.7 45.946c-.378 0-.7-.318-.7-.691v-8.271l-3.41 5.016h-2.152l-3.438-5.031v8.286c0 .373-.217.745-.484.745-.268 0-.516-.372-.516-.745v-9.483c0-.304.196-.567.49-.664.28-.099.688.014.871.249l4.146 5.613 4.146-5.613c.182-.235.576-.348.87-.249.28.097.476.359.476.664v9.483c0 .373-.308.691-.7.691h.401zm4.3-.946v-4h6v-1h-6v-4h5.996l-.011-1h-6.547c-.236 0-.437.193-.437.438v10.562h7v-1h-6zm10 0v-4h6v-1h-6v-4h5.996l-.011-1h-6.547c-.236 0-.437.193-.437.438v10.562h7v-1h-6zm17.005-10h-8.005v1h4v10h1v-10h4v-1h-.995z"/></g></svg>